<?xml version="1.0" standalone="yes"?>
<svg xmlns="http://www.w3.org/2000/svg" width="512" height="512">
<path style="fill:#2e2e2e; stroke:none;" d="M0 0L0 512L163 512C209.966 512 255.665 513.228 300 494.989C336.469 479.986 367.286 456.724 395 429C405.219 418.778 414.457 407.559 423.127 396C426.776 391.135 430.533 382.922 436.04 380.028C442.915 376.414 456.326 379 464 379L464 357L459 357C459 361.197 460.72 370.278 456.682 372.972C451.234 376.607 437.418 374 431 374L379 374C370.019 374 359.941 375.116 352 370.03C341.828 363.516 341 353.975 341 343C341 321.175 338.482 297.646 341.185 276C342.086 268.783 346.703 261.953 353 258.367C361.604 253.468 375.394 256 385 256L459 256C459 260.973 461.149 272.644 457.397 276.397C453.208 280.585 438.602 278 433 278L363 278L363 352L427 352C433.027 352 446.31 354.499 451.363 350.972C457.107 346.962 461.275 334.304 464 328C472.016 309.46 479.934 291.198 486.333 272C515.822 183.533 512 91.9035 512 0L0 0z"/>
<path style="fill:#484a47; stroke:none;" d="M73 0L74 1L73 0M438 0L439 1L438 0M67 1L68 2L67 1M444 1L445 2L444 1M59 3L60 4L59 3M452 3L453 4L452 3M56 4L57 5L56 4M455 4L456 5L455 4M51 6L52 7L51 6M460 6L461 7L460 6M462 7L463 8L462 7M32 17L33 18L32 17M30 19L29 21L30 19M494 32L495 33L494 32M496 35L497 36L496 35M500 41L501 42L500 41M10 43L11 44L10 43M9 45L10 46L9 45M505 51L506 52L505 51M507 56L508 57L507 56M3 59L4 60L3 59M509 63L510 64L509 63M510 67L511 68L510 67M511 72L512 73L511 72M0 73L1 74L0 73z"/>
<path style="fill:#018101; stroke:none;" d="M53 128L53 224L75 224L75 149L128 149L128 224L149 224L149 163C149 152.941 150.354 142.167 142.671 134.304C135.25 126.709 124.678 128 115 128L53 128z"/>
<path style="fill:#484a47; stroke:none;" d="M132 128L133 129L132 128M176 128L177 129L176 128z"/>
<path style="fill:#018101; stroke:none;" d="M177 128.529C152.522 134.188 160 171.635 160 190C160 198.535 158.995 207.61 164.225 214.96C174.964 230.052 204.819 224 221 224C227.206 224 233.958 224.738 240 223.072C263.372 216.627 256 179.112 256 161C256 152.766 256.666 143.986 251.442 137.004C240.467 122.335 213.169 128 197 128C190.569 128 183.297 127.074 177 128.529z"/>
<path style="fill:#484a47; stroke:none;" d="M239 128L240 129L239 128M511 128C511 180.388 499.911 234.84 481.947 284C476.228 299.649 469.639 314.87 462.691 330C459.301 337.383 454.256 344.168 452 352L459 352L459 357L464 357L464 379C456.204 379 442.02 376.26 435.093 380.028C428.123 383.819 422.683 395.792 417.789 402C405.764 417.255 392.415 431.792 378 444.83C338.005 481.003 282.222 511 227 511L227 512L387 512C415.5 512 445.438 515.785 471 500.547C510.777 476.835 512 438.052 512 397L512 217L512 155C512 146.993 514.105 135.4 511 128M135 129L136 130L135 129M173 129L174 130L173 129M242 129L243 130L242 129M171 130L172 131L171 130M244 130L245 131L244 130M139 131L140 132L139 131M140 132L141 133L140 132M168 132L169 133L168 132M167 133L168 134L167 133M248 133L249 134L248 133M166 134L167 135L166 134M249 134L250 135L249 134M165 135L166 136L165 135M144 136L145 137L144 136M160 145L161 146L160 145z"/>
<path style="fill:#2e2e2e; stroke:none;" d="M234 202L234 164C234.005 160.625 236.05 153.381 233.958 150.603C231.93 147.911 225.914 149 223 149L193 149C190.02 149 184.147 147.927 182.028 150.603C177.763 155.988 181 174.214 181 181C181 185.414 178.752 199.056 182.603 201.958C185.381 204.05 192.626 202.005 196 202L234 202z"/>
<path style="fill:#484a47; stroke:none;" d="M234 155L234 202L235 202C235 188.735 239.11 167.177 234 155M187 202L187 203L234 203C221.823 197.891 200.265 202 187 202M160 206L161 207L160 206M164 215L165 216L164 215M165 216L166 217L165 216M168 219L169 220L168 219z"/>
<path style="fill:#aeae0a; stroke:none;" d="M53 256L54 257L53 256z"/>
<path style="fill:#ffff01; stroke:none;" d="M54 256C64.2698 284.221 83.5629 311.721 98.1389 338C103.589 347.826 108.582 363.82 116.904 371.397C120.391 374.572 131.469 373.612 135.896 372.852C143.743 371.504 150.539 351.49 154.139 345C169.933 316.525 190.875 286.57 202 256C196.058 256 184.511 253.776 179.39 257.028C173.177 260.973 169.142 273.701 165.576 280C153.69 300.99 136.271 324.022 129 347L127 347C119.729 324.024 102.29 301.001 90.4244 280C86.8662 273.702 82.8177 260.97 76.6103 257.028C71.4891 253.776 59.9424 256 54 256z"/>
<path style="fill:#aeae0a; stroke:none;" d="M77 256L78 257L77 256M178 256L179 257L178 256M202 256L203 257L202 256M213 256L213 373L214 373L214 292L213 256z"/>
<path style="fill:#ffff01; stroke:none;" d="M214 256L214 373L234 373L234 288L287.95 349L309.039 371.972L330 373L330 256L310 256L310 341C289.501 325.323 272.679 299.501 255.718 280C250.048 273.48 242.025 259.815 233.91 256.603C228.405 254.424 219.874 256 214 256z"/>
<path style="fill:#484a47; stroke:none;" d="M235 256L236 257L235 256z"/>
<path style="fill:#aeae0a; stroke:none;" d="M309 256L309 311L308 341C312.126 337.394 310 326.217 310 321L310 277C310 270.58 311.497 261.951 309 256M330 256L330 373L331 373L331 292L330 256z"/>
<path style="fill:#484a47; stroke:none;" d="M356.667 256.333L357.333 256.667L356.667 256.333z"/>
<path style="fill:#aeae0a; stroke:none;" d="M358.667 256.333L359.333 256.667L358.667 256.333z"/>
<path style="fill:#ffff01; stroke:none;" d="M458 373L458 352L362 352L362 298C362 293.238 359.977 282.23 363.603 278.603C367.792 274.415 382.398 277 388 277L458 277L458 256L384 256C373.442 256 360.308 253.857 351.015 259.97C342.306 265.698 342 274.64 342 284L342 343C342 353.576 341.864 363.691 352.001 370.005C360.7 375.424 374.177 373 384 373L458 373z"/>
<path style="fill:#aeae0a; stroke:none;" d="M458 256L458 277L459 277L458 256z"/>
<path style="fill:#484a47; stroke:none;" d="M78 257L79 258L78 257M236 257L237 258L236 257M354 257L355 258L354 257z"/>
<path style="fill:#aeae0a; stroke:none;" d="M355 257L356 258L355 257z"/>
<path style="fill:#484a47; stroke:none;" d="M54 258L55 259L54 258z"/>
<path style="fill:#aeae0a; stroke:none;" d="M78 258L79 259L78 258M177 258L178 259L177 258z"/>
<path style="fill:#484a47; stroke:none;" d="M201 258L202 259L201 258M237 258L238 259L237 258M352 258L353 259L352 258z"/>
<path style="fill:#aeae0a; stroke:none;" d="M353 258L354 259L353 258M55 259L56 260L55 259z"/>
<path style="fill:#484a47; stroke:none;" d="M79 259L80 260L79 259M176 259L177 260L176 259z"/>
<path style="fill:#aeae0a; stroke:none;" d="M200 259L201 260L200 259M237 259L238 260L237 259z"/>
<path style="fill:#484a47; stroke:none;" d="M350 259L351 260L350 259z"/>
<path style="fill:#aeae0a; stroke:none;" d="M351 259L352 260L351 259z"/>
<path style="fill:#484a47; stroke:none;" d="M55 260L56 261L55 260z"/>
<path style="fill:#aeae0a; stroke:none;" d="M79 260L80 261L79 260M176 260L177 261L176 260z"/>
<path style="fill:#484a47; stroke:none;" d="M200 260L201 261L200 260z"/>
<path style="fill:#aeae0a; stroke:none;" d="M238 260L239 261L238 260z"/>
<path style="fill:#484a47; stroke:none;" d="M349 260L350 261L349 260z"/>
<path style="fill:#aeae0a; stroke:none;" d="M56 261L57 262L56 261z"/>
<path style="fill:#484a47; stroke:none;" d="M80 261L81 262L80 261M175 261L176 262L175 261z"/>
<path style="fill:#aeae0a; stroke:none;" d="M199 261L200 262L199 261M239 261L240 262L239 261z"/>
<path style="fill:#484a47; stroke:none;" d="M348 261L349 262L348 261M56 262L57 263L56 262z"/>
<path style="fill:#aeae0a; stroke:none;" d="M80 262L81 263L80 262M175 262L176 263L175 262z"/>
<path style="fill:#484a47; stroke:none;" d="M240 262L241 263L240 262M347 262L348 263L347 262z"/>
<path style="fill:#aeae0a; stroke:none;" d="M57 263L58 264L57 263z"/>
<path style="fill:#484a47; stroke:none;" d="M81 263L82 264L81 263M174 263L175 264L174 263z"/>
<path style="fill:#aeae0a; stroke:none;" d="M198 263L199 264L198 263z"/>
<path style="fill:#484a47; stroke:none;" d="M241 263L242 264L241 263M346 263L347 264L346 263M57 264L58 265L57 264M345 264L346 265L345 264z"/>
<path style="fill:#aeae0a; stroke:none;" d="M58 265L59 266L58 265z"/>
<path style="fill:#484a47; stroke:none;" d="M82 265L83 266L82 265z"/>
<path style="fill:#aeae0a; stroke:none;" d="M173 265L174 266L173 265M197 265L198 266L197 265M345 265L346 266L345 265z"/>
<path style="fill:#484a47; stroke:none;" d="M172 266L173 267L172 266z"/>
<path style="fill:#aeae0a; stroke:none;" d="M243 266L244 267L243 266M344 266L345 267L344 266M59 267L60 268L59 267M83 267L84 268L83 267M172 267L173 268L172 267z"/>
<path style="fill:#484a47; stroke:none;" d="M196 267L197 268L196 267z"/>
<path style="fill:#aeae0a; stroke:none;" d="M244 267L245 268L244 267z"/>
<path style="fill:#484a47; stroke:none;" d="M171 268L172 269L171 268z"/>
<path style="fill:#aeae0a; stroke:none;" d="M245 268L246 269L245 268M343 268L344 269L343 268z"/>
<path style="fill:#484a47; stroke:none;" d="M60 269L61 270L60 269z"/>
<path style="fill:#aeae0a; stroke:none;" d="M84 269L85 270L84 269M171 269L172 270L171 269z"/>
<path style="fill:#484a47; stroke:none;" d="M195 269L196 270L195 269z"/>
<path style="fill:#aeae0a; stroke:none;" d="M246 269L247 270L246 269M61 270L62 271L61 270z"/>
<path style="fill:#484a47; stroke:none;" d="M170 270L171 271L170 270z"/>
<path style="fill:#aeae0a; stroke:none;" d="M194 270L195 271L194 270z"/>
<path style="fill:#484a47; stroke:none;" d="M247 270L248 271L247 270M342 270L343 271L342 270M61 271L62 272L61 271z"/>
<path style="fill:#aeae0a; stroke:none;" d="M85 271L86 272L85 271M170 271L171 272L170 271z"/>
<path style="fill:#484a47; stroke:none;" d="M248 271L249 272L248 271z"/>
<path style="fill:#aeae0a; stroke:none;" d="M342 271L343 272L342 271M62 272L63 273L62 272z"/>
<path style="fill:#484a47; stroke:none;" d="M86 272L87 273L86 272M169 272L170 273L169 272z"/>
<path style="fill:#aeae0a; stroke:none;" d="M193 272L194 273L193 272z"/>
<path style="fill:#484a47; stroke:none;" d="M62 273L63 274L62 273M341.333 273.667L341.667 274.333L341.333 273.667z"/>
<path style="fill:#aeae0a; stroke:none;" d="M63 274L64 275L63 274z"/>
<path style="fill:#484a47; stroke:none;" d="M87 274L88 275L87 274z"/>
<path style="fill:#aeae0a; stroke:none;" d="M168 274L169 275L168 274M192 274L193 275L192 274M250 274L251 275L250 274z"/>
<path style="fill:#484a47; stroke:none;" d="M63 275L64 276L63 275M167 275L168 276L167 275z"/>
<path style="fill:#aeae0a; stroke:none;" d="M251 275L252 276L251 275M341 275L341 355L342 355L342 300L341 275M64 276L65 277L64 276M88 276L89 277L88 276M167 276L168 277L167 276M191 276L192 277L191 276M252 276L253 277L252 276z"/>
<path style="fill:#484a47; stroke:none;" d="M166 277L167 278L166 277z"/>
<path style="fill:#aeae0a; stroke:none;" d="M253 277L254 278L253 277z"/>
<path style="fill:#484a47; stroke:none;" d="M363 277L363 278L458 278L429 277L363 277z"/>
<path style="fill:#aeae0a; stroke:none;" d="M65 278L66 279L65 278M89 278L90 279L89 278M166 278L167 279L166 278z"/>
<path style="fill:#484a47; stroke:none;" d="M190 278L191 279L190 278M254 278L255 279L254 278z"/>
<path style="fill:#aeae0a; stroke:none;" d="M362 278L362 352L363 352L363 301L362 278z"/>
<path style="fill:#484a47; stroke:none;" d="M165 279L166 280L165 279M255 279L256 280L255 279M66 280L67 281L66 280z"/>
<path style="fill:#aeae0a; stroke:none;" d="M90 280L91 281L90 280M165 280L166 281L165 280z"/>
<path style="fill:#484a47; stroke:none;" d="M189 280L190 281L189 280z"/>
<path style="fill:#aeae0a; stroke:none;" d="M67 281L68 282L67 281z"/>
<path style="fill:#484a47; stroke:none;" d="M91 281L92 282L91 281M164 281L165 282L164 281z"/>
<path style="fill:#aeae0a; stroke:none;" d="M188 281L189 282L188 281z"/>
<path style="fill:#484a47; stroke:none;" d="M67 282L68 283L67 282z"/>
<path style="fill:#aeae0a; stroke:none;" d="M257 282L258 283L257 282M68 283L69 284L68 283z"/>
<path style="fill:#484a47; stroke:none;" d="M92 283L93 284L92 283z"/>
<path style="fill:#aeae0a; stroke:none;" d="M163 283L164 284L163 283M187 283L188 284L187 283M258 283L259 284L258 283z"/>
<path style="fill:#484a47; stroke:none;" d="M68 284L69 285L68 284M162 284L163 285L162 284z"/>
<path style="fill:#aeae0a; stroke:none;" d="M259 284L260 285L259 284M69 285L70 286L69 285M93 285L94 286L93 285M162 285L163 286L162 285M186 285L187 286L186 285M260 285L261 286L260 285z"/>
<path style="fill:#484a47; stroke:none;" d="M69 286L70 287L69 286M161 286L162 287L161 286M261 286L262 287L261 286z"/>
<path style="fill:#aeae0a; stroke:none;" d="M70 287L71 288L70 287M94 287L95 288L94 287M161 287L162 288L161 287M185 287L186 288L185 287z"/>
<path style="fill:#484a47; stroke:none;" d="M262 287L263 288L262 287M95 288L96 289L95 288M160 288L161 289L160 288z"/>
<path style="fill:#aeae0a; stroke:none;" d="M234 288L234 373L235 373L235 318L236 288L234 288M71 289L72 290L71 289M95 289L96 290L95 289z"/>
<path style="fill:#484a47; stroke:none;" d="M184 289L185 290L184 289M96 290L97 291L96 290z"/>
<path style="fill:#aeae0a; stroke:none;" d="M159 290L160 291L159 290M264 290L265 291L264 290z"/>
<path style="fill:#484a47; stroke:none;" d="M72 291L73 292L72 291M183 291L184 292L183 291M237 291L238 292L237 291z"/>
<path style="fill:#aeae0a; stroke:none;" d="M265 291L266 292L265 291M73 292L74 293L73 292M97 292L98 293L97 292M158 292L159 293L158 292M182 292L183 293L182 292z"/>
<path style="fill:#484a47; stroke:none;" d="M238 292L239 293L238 292z"/>
<path style="fill:#aeae0a; stroke:none;" d="M266 292L267 293L266 292z"/>
<path style="fill:#484a47; stroke:none;" d="M73 293L74 294L73 293M157 293L158 294L157 293z"/>
<path style="fill:#aeae0a; stroke:none;" d="M239 293L240 294L239 293M267 293L268 294L267 293M74 294L75 295L74 294M98 294L99 295L98 294M157 294L158 295L157 294M181 294L182 295L181 294M240 294L241 295L240 294z"/>
<path style="fill:#484a47; stroke:none;" d="M268 294L269 295L268 294M74 295L75 296L74 295M156 295L157 296L156 295z"/>
<path style="fill:#aeae0a; stroke:none;" d="M241 295L242 296L241 295z"/>
<path style="fill:#484a47; stroke:none;" d="M269 295L270 296L269 295z"/>
<path style="fill:#aeae0a; stroke:none;" d="M75 296L76 297L75 296M99 296L100 297L99 296M156 296L157 297L156 296M180 296L181 297L180 296z"/>
<path style="fill:#484a47; stroke:none;" d="M241 296L242 297L241 296M75 297L76 298L75 297M100 297L101 298L100 297M155 297L156 298L155 297M242 297L243 298L242 297z"/>
<path style="fill:#aeae0a; stroke:none;" d="M76 298L77 299L76 298M100 298L101 299L100 298M179 298L180 299L179 298z"/>
<path style="fill:#484a47; stroke:none;" d="M243 298L244 299L243 298z"/>
<path style="fill:#aeae0a; stroke:none;" d="M271 298L272 299L271 298z"/>
<path style="fill:#484a47; stroke:none;" d="M101 299L102 300L101 299z"/>
<path style="fill:#aeae0a; stroke:none;" d="M154 299L155 300L154 299z"/>
<path style="fill:#484a47; stroke:none;" d="M244 299L245 300L244 299z"/>
<path style="fill:#aeae0a; stroke:none;" d="M272 299L273 300L272 299M77 300L78 301L77 300z"/>
<path style="fill:#484a47; stroke:none;" d="M178 300L179 301L178 300z"/>
<path style="fill:#aeae0a; stroke:none;" d="M245 300L246 301L245 300M273 300L274 301L273 300M102 301L103 302L102 301M153 301L154 302L153 301M246 301L247 302L246 301M274 301L275 302L274 301z"/>
<path style="fill:#484a47; stroke:none;" d="M78 302L79 303L78 302M152 302L153 303L152 302M177 302L178 303L177 302z"/>
<path style="fill:#aeae0a; stroke:none;" d="M247 302L248 303L247 302z"/>
<path style="fill:#484a47; stroke:none;" d="M275 302L276 303L275 302z"/>
<path style="fill:#aeae0a; stroke:none;" d="M79 303L80 304L79 303M103 303L104 304L103 303M152 303L153 304L152 303M176 303L177 304L176 303M248 303L249 304L248 303z"/>
<path style="fill:#484a47; stroke:none;" d="M276 303L277 304L276 303M79 304L80 305L79 304M151 304L152 305L151 304M248 304L249 305L248 304z"/>
<path style="fill:#aeae0a; stroke:none;" d="M80 305L81 306L80 305M104 305L105 306L104 305M151 305L152 306L151 305M175 305L176 306L175 305z"/>
<path style="fill:#484a47; stroke:none;" d="M249 305L250 306L249 305M80 306L81 307L80 306M105 306L106 307L105 306M150 306L151 307L150 306M250 306L251 307L250 306z"/>
<path style="fill:#aeae0a; stroke:none;" d="M278 306L279 307L278 306M81 307L82 308L81 307M174 307L175 308L174 307z"/>
<path style="fill:#484a47; stroke:none;" d="M251 307L252 308L251 307z"/>
<path style="fill:#aeae0a; stroke:none;" d="M279 307L280 308L279 307z"/>
<path style="fill:#484a47; stroke:none;" d="M81 308L82 309L81 308M106 308L107 309L106 308z"/>
<path style="fill:#aeae0a; stroke:none;" d="M149 308L150 309L149 308M252 308L253 309L252 308M280 308L281 309L280 308M82 309L83 310L82 309M173 309L174 310L173 309M253 309L254 310L253 309M281 309L282 310L281 309M107 310L108 311L107 310M148 310L149 311L148 310M254 310L255 311L254 310z"/>
<path style="fill:#484a47; stroke:none;" d="M282 310L283 311L282 310z"/>
<path style="fill:#aeae0a; stroke:none;" d="M83 311L84 312L83 311z"/>
<path style="fill:#484a47; stroke:none;" d="M147 311L148 312L147 311M172 311L173 312L172 311z"/>
<path style="fill:#aeae0a; stroke:none;" d="M255 311L256 312L255 311z"/>
<path style="fill:#484a47; stroke:none;" d="M283 311L284 312L283 311z"/>
<path style="fill:#aeae0a; stroke:none;" d="M108 312L109 313L108 312M147 312L148 313L147 312z"/>
<path style="fill:#484a47; stroke:none;" d="M255 312L256 313L255 312M84 313L85 314L84 313M146 313L147 314L146 313M171 313L172 314L171 313M256 313L257 314L256 313z"/>
<path style="fill:#aeae0a; stroke:none;" d="M85 314L86 315L85 314M109 314L110 315L109 314M146 314L147 315L146 314M170 314L171 315L170 314z"/>
<path style="fill:#484a47; stroke:none;" d="M257 314L258 315L257 314z"/>
<path style="fill:#aeae0a; stroke:none;" d="M285 314L286 315L285 314z"/>
<path style="fill:#484a47; stroke:none;" d="M85 315L86 316L85 315M110 315L111 316L110 315M145 315L146 316L145 315M258 315L259 316L258 315z"/>
<path style="fill:#aeae0a; stroke:none;" d="M286 315L287 316L286 315M86 316L87 317L86 316M169 316L170 317L169 316M259 316L260 317L259 316M287 316L288 317L287 316z"/>
<path style="fill:#484a47; stroke:none;" d="M86 317L87 318L86 317M111 317L112 318L111 317z"/>
<path style="fill:#aeae0a; stroke:none;" d="M144 317L145 318L144 317M260 317L261 318L260 317M288 317L289 318L288 317M87 318L88 319L87 318M168 318L169 319L168 318M261 318L262 319L261 318z"/>
<path style="fill:#484a47; stroke:none;" d="M289 318L290 319L289 318M87 319L88 320L87 319z"/>
<path style="fill:#aeae0a; stroke:none;" d="M112 319L113 320L112 319M143 319L144 320L143 319M262 319L263 320L262 319z"/>
<path style="fill:#484a47; stroke:none;" d="M290 319L291 320L290 319z"/>
<path style="fill:#aeae0a; stroke:none;" d="M88 320L89 321L88 320z"/>
<path style="fill:#484a47; stroke:none;" d="M142 320L143 321L142 320z"/>
<path style="fill:#aeae0a; stroke:none;" d="M167 320L168 321L167 320z"/>
<path style="fill:#484a47; stroke:none;" d="M262 320L263 321L262 320z"/>
<path style="fill:#aeae0a; stroke:none;" d="M113 321L114 322L113 321M142 321L143 322L142 321z"/>
<path style="fill:#484a47; stroke:none;" d="M263 321L264 322L263 321z"/>
<path style="fill:#aeae0a; stroke:none;" d="M89 322L90 323L89 322z"/>
<path style="fill:#484a47; stroke:none;" d="M141 322L142 323L141 322M166 322L167 323L166 322M264 322L265 323L264 322z"/>
<path style="fill:#aeae0a; stroke:none;" d="M292 322L293 323L292 322M114 323L115 324L114 323M141 323L142 324L141 323z"/>
<path style="fill:#484a47; stroke:none;" d="M265 323L266 324L265 323z"/>
<path style="fill:#aeae0a; stroke:none;" d="M293 323L294 324L293 323z"/>
<path style="fill:#484a47; stroke:none;" d="M90 324L91 325L90 324M115 324L116 325L115 324M140 324L141 325L140 324M165 324L166 325L165 324z"/>
<path style="fill:#aeae0a; stroke:none;" d="M266 324L267 325L266 324M294 324L295 325L294 324M91 325L92 326L91 325M164 325L165 326L164 325M267 325L268 326L267 325M295 325L296 326L295 325z"/>
<path style="fill:#484a47; stroke:none;" d="M91 326L92 327L91 326M116 326L117 327L116 326z"/>
<path style="fill:#aeae0a; stroke:none;" d="M139 326L140 327L139 326M268 326L269 327L268 326z"/>
<path style="fill:#484a47; stroke:none;" d="M296 326L297 327L296 326z"/>
<path style="fill:#aeae0a; stroke:none;" d="M92 327L93 328L92 327z"/>
<path style="fill:#484a47; stroke:none;" d="M138 327L139 328L138 327z"/>
<path style="fill:#aeae0a; stroke:none;" d="M163 327L164 328L163 327M269 327L270 328L269 327z"/>
<path style="fill:#484a47; stroke:none;" d="M297 327L298 328L297 327M92 328L93 329L92 328z"/>
<path style="fill:#aeae0a; stroke:none;" d="M117 328L118 329L117 328M138 328L139 329L138 328z"/>
<path style="fill:#484a47; stroke:none;" d="M269 328L270 329L269 328z"/>
<path style="fill:#aeae0a; stroke:none;" d="M93 329L94 330L93 329z"/>
<path style="fill:#484a47; stroke:none;" d="M137 329L138 330L137 329z"/>
<path style="fill:#aeae0a; stroke:none;" d="M162 329L163 330L162 329z"/>
<path style="fill:#484a47; stroke:none;" d="M270 329L271 330L270 329M93 330L94 331L93 330z"/>
<path style="fill:#aeae0a; stroke:none;" d="M118 330L119 331L118 330M137 330L138 331L137 330z"/>
<path style="fill:#484a47; stroke:none;" d="M271 330L272 331L271 330z"/>
<path style="fill:#aeae0a; stroke:none;" d="M299 330L300 331L299 330M94 331L95 332L94 331z"/>
<path style="fill:#484a47; stroke:none;" d="M136 331L137 332L136 331z"/>
<path style="fill:#aeae0a; stroke:none;" d="M161 331L162 332L161 331z"/>
<path style="fill:#484a47; stroke:none;" d="M272 331L273 332L272 331z"/>
<path style="fill:#aeae0a; stroke:none;" d="M300 331L301 332L300 331M119 332L120 333L119 332M136 332L137 333L136 332M273 332L274 333L273 332M301 332L302 333L301 332M95 333L96 334L95 333z"/>
<path style="fill:#484a47; stroke:none;" d="M120 333L121 334L120 333M135 333L136 334L135 333M160 333L161 334L160 333z"/>
<path style="fill:#aeae0a; stroke:none;" d="M274 333L275 334L274 333M302 333L303 334L302 333M275 334L276 335L275 334z"/>
<path style="fill:#484a47; stroke:none;" d="M303 334L304 335L303 334M96 335L97 336L96 335M121 335L122 336L121 335z"/>
<path style="fill:#aeae0a; stroke:none;" d="M134 335L135 336L134 335z"/>
<path style="fill:#484a47; stroke:none;" d="M159 335L160 336L159 335z"/>
<path style="fill:#aeae0a; stroke:none;" d="M276 335L277 336L276 335z"/>
<path style="fill:#484a47; stroke:none;" d="M304 335L305 336L304 335z"/>
<path style="fill:#aeae0a; stroke:none;" d="M97 336L98 337L97 336z"/>
<path style="fill:#484a47; stroke:none;" d="M133 336L134 337L133 336z"/>
<path style="fill:#aeae0a; stroke:none;" d="M158 336L159 337L158 336z"/>
<path style="fill:#484a47; stroke:none;" d="M276 336L277 337L276 336M97 337L98 338L97 337z"/>
<path style="fill:#aeae0a; stroke:none;" d="M122 337L123 338L122 337M133 337L134 338L133 337z"/>
<path style="fill:#484a47; stroke:none;" d="M277 337L278 338L277 337z"/>
<path style="fill:#aeae0a; stroke:none;" d="M98 338L99 339L98 338z"/>
<path style="fill:#484a47; stroke:none;" d="M132 338L133 339L132 338z"/>
<path style="fill:#aeae0a; stroke:none;" d="M157 338L158 339L157 338z"/>
<path style="fill:#484a47; stroke:none;" d="M278 338L279 339L278 338z"/>
<path style="fill:#aeae0a; stroke:none;" d="M306 338L307 339L306 338z"/>
<path style="fill:#484a47; stroke:none;" d="M98 339L99 340L98 339z"/>
<path style="fill:#aeae0a; stroke:none;" d="M123 339L124 340L123 339M132 339L133 340L132 339z"/>
<path style="fill:#484a47; stroke:none;" d="M279 339L280 340L279 339z"/>
<path style="fill:#aeae0a; stroke:none;" d="M307 339L308 340L307 339M99 340L100 341L99 340z"/>
<path style="fill:#484a47; stroke:none;" d="M131 340L132 341L131 340z"/>
<path style="fill:#aeae0a; stroke:none;" d="M156 340L157 341L156 340M280 340L281 341L280 340z"/>
<path style="fill:#484a47; stroke:none;" d="M99 341L100 342L99 341z"/>
<path style="fill:#aeae0a; stroke:none;" d="M124 341L125 342L124 341M131 341L132 342L131 341M281 341L282 342L281 341M100 342L101 343L100 342z"/>
<path style="fill:#484a47; stroke:none;" d="M125 342L126 343L125 342M130 342L131 343L130 342z"/>
<path style="fill:#aeae0a; stroke:none;" d="M155 342L156 343L155 342M282 342L283 343L282 342M283 343L284 344L283 343M101 344L102 345L101 344z"/>
<path style="fill:#484a47; stroke:none;" d="M126 344L127 345L126 344z"/>
<path style="fill:#aeae0a; stroke:none;" d="M129 344L130 345L129 344z"/>
<path style="fill:#484a47; stroke:none;" d="M154 344L155 345L154 344M283 344L284 345L283 344M284 345L285 346L284 345M102 346L103 347L102 346z"/>
<path style="fill:#aeae0a; stroke:none;" d="M127.667 346.333L128.333 346.667L127.667 346.333z"/>
<path style="fill:#484a47; stroke:none;" d="M153 346L154 347L153 346M285 346L286 347L285 346z"/>
<path style="fill:#aeae0a; stroke:none;" d="M103 347L104 348L103 347M152 347L153 348L152 347z"/>
<path style="fill:#484a47; stroke:none;" d="M286 347L287 348L286 347M103 348L104 349L103 348z"/>
<path style="fill:#aeae0a; stroke:none;" d="M287 348L288 349L287 348M104 349L105 350L104 349M151 349L152 350L151 349M288 349L289 350L288 349z"/>
<path style="fill:#484a47; stroke:none;" d="M104 350L105 351L104 350z"/>
<path style="fill:#aeae0a; stroke:none;" d="M289 350L290 351L289 350M105 351L106 352L105 351M150 351L151 352L150 351M290 351L291 352L290 351z"/>
<path style="fill:#484a47; stroke:none;" d="M105 352L106 353L105 352M290 352L291 353L290 352z"/>
<path style="fill:#aeae0a; stroke:none;" d="M458 352L458 373L459 373L458 352M106 353L107 354L106 353M149 353L150 354L149 353z"/>
<path style="fill:#484a47; stroke:none;" d="M291 353L292 354L291 353M292 354L293 355L292 354z"/>
<path style="fill:#aeae0a; stroke:none;" d="M107 355L108 356L107 355z"/>
<path style="fill:#484a47; stroke:none;" d="M148 355L149 356L148 355M293 355L294 356L293 355M341 355L342 356L341 355z"/>
<path style="fill:#aeae0a; stroke:none;" d="M294 356L295 357L294 356z"/>
<path style="fill:#484a47; stroke:none;" d="M108 357L109 358L108 357M147 357L148 358L147 357z"/>
<path style="fill:#aeae0a; stroke:none;" d="M295 357L296 358L295 357M342.333 357.667L342.667 358.333L342.333 357.667M109 358L110 359L109 358M146 358L147 359L146 358M296 358L297 359L296 358z"/>
<path style="fill:#484a47; stroke:none;" d="M109 359L110 360L109 359z"/>
<path style="fill:#aeae0a; stroke:none;" d="M297 359L298 360L297 359z"/>
<path style="fill:#484a47; stroke:none;" d="M342 359L343 360L342 359z"/>
<path style="fill:#aeae0a; stroke:none;" d="M110 360L111 361L110 360M145 360L146 361L145 360z"/>
<path style="fill:#484a47; stroke:none;" d="M297 360L298 361L297 360z"/>
<path style="fill:#aeae0a; stroke:none;" d="M343 360L344 361L343 360z"/>
<path style="fill:#484a47; stroke:none;" d="M110 361L111 362L110 361M298 361L299 362L298 361M343 361L344 362L343 361z"/>
<path style="fill:#aeae0a; stroke:none;" d="M111 362L112 363L111 362M144 362L145 363L144 362z"/>
<path style="fill:#484a47; stroke:none;" d="M299 362L300 363L299 362z"/>
<path style="fill:#aeae0a; stroke:none;" d="M344 362L345 363L344 362z"/>
<path style="fill:#484a47; stroke:none;" d="M111 363L112 364L111 363M300 363L301 364L300 363M344 363L345 364L344 363z"/>
<path style="fill:#aeae0a; stroke:none;" d="M112 364L113 365L112 364M143 364L144 365L143 364M301 364L302 365L301 364z"/>
<path style="fill:#484a47; stroke:none;" d="M345 364L346 365L345 364z"/>
<path style="fill:#aeae0a; stroke:none;" d="M302 365L303 366L302 365M346 365L347 366L346 365M113 366L114 367L113 366z"/>
<path style="fill:#484a47; stroke:none;" d="M142 366L143 367L142 366z"/>
<path style="fill:#aeae0a; stroke:none;" d="M303 366L304 367L303 366M347 366L348 367L347 366M304 367L305 368L304 367M348 367L349 368L348 367z"/>
<path style="fill:#484a47; stroke:none;" d="M114 368L115 369L114 368M141 368L142 369L141 368M304 368L305 369L304 368z"/>
<path style="fill:#aeae0a; stroke:none;" d="M349 368L350 369L349 368M115 369L116 370L115 369M140 369L141 370L140 369z"/>
<path style="fill:#484a47; stroke:none;" d="M305 369L306 370L305 369M350 369L351 370L350 369M115 370L116 371L115 370M306 370L307 371L306 370z"/>
<path style="fill:#aeae0a; stroke:none;" d="M352 370L353 371L352 370M116 371L117 372L116 371M139 371L140 372L139 371z"/>
<path style="fill:#484a47; stroke:none;" d="M307 371L308 372L307 371z"/>
<path style="fill:#aeae0a; stroke:none;" d="M354 371L355 372L354 371z"/>
<path style="fill:#484a47; stroke:none;" d="M116 372L117 373L116 372z"/>
<path style="fill:#aeae0a; stroke:none;" d="M308 372L309 373L308 372z"/>
<path style="fill:#484a47; stroke:none;" d="M356 372L357 373L356 372z"/>
<path style="fill:#aeae0a; stroke:none;" d="M357 372L358 373L357 372z"/>
<path style="fill:#484a47; stroke:none;" d="M117 373L117 374L139 374L117 373M213 373L213 374L234 374L213 373M309 373L309 374L330 374L309 373M361 373L361 374L458 374L428 373L361 373M0 438L1 439L0 438z"/>
<path style="fill:#2e2e2e; stroke:none;" d="M511 440C508.189 474.412 474.412 508.189 440 511L440 512L512 512L512 463L511 440z"/>
<path style="fill:#484a47; stroke:none;" d="M1 444L2 445L1 444M3 452L4 453L3 452M4 455L5 456L4 455M9 466L10 467L9 466M32 494L33 495L32 494M51 505L52 506L51 505M67 510L68 511L67 510M72.6667 511.333L73.3333 511.667L72.6667 511.333z"/>
</svg>
